<!DOCTYPE svg PUBLIC "-//W3C//DTD SVG 20010904//EN" "http://www.w3.org/TR/2001/REC-SVG-20010904/DTD/svg10.dtd">
<svg version="1.0" xmlns="http://www.w3.org/2000/svg" width="326px" height="345px" viewBox="0 0 3260 3450" preserveAspectRatio="xMidYMid meet">
<g id="layer101" fill="#4371c2" stroke="none">
 <path d="M1435 3419 c-609 -82 -1122 -525 -1319 -1138 -245 -762 44 -1585 704 -2008 142 -92 325 -164 514 -205 146 -31 436 -31 582 0 391 84 724 299 962 620 456 617 456 1477 0 2094 -237 319 -574 537 -957 619 -112 23 -375 33 -486 18z m242 -781 c5 -7 49 -119 97 -248 48 -129 160 -416 248 -637 121 -306 166 -407 185 -423 14 -11 50 -27 79 -37 50 -15 54 -19 54 -47 l0 -31 -237 2 -238 2 -3 29 c-3 27 0 29 60 47 70 21 98 39 98 66 0 31 -271 802 -289 821 -9 10 -293 -783 -293 -817 0 -38 16 -51 87 -70 62 -17 65 -19 65 -49 l0 -31 -342 2 -343 2 0 28 c0 26 5 30 70 50 45 15 79 33 96 51 31 35 133 280 351 846 93 242 171 443 174 448 8 13 70 9 81 -4z"/>
 </g>
<g id="layer102" fill="#5c99d3" stroke="none">
 <path d="M1587 2653 c-3 -5 -69 -174 -147 -378 -176 -458 -313 -802 -351 -877 -26 -51 -34 -58 -81 -76 -29 -11 -68 -23 -85 -27 -31 -6 -33 -9 -33 -48 l0 -42 360 0 361 0 -3 40 c-3 39 -3 39 -68 58 -76 22 -90 32 -90 61 0 32 273 787 281 779 8 -8 179 -478 244 -670 21 -61 35 -119 32 -127 -4 -9 -39 -25 -82 -37 l-75 -22 0 -41 0 -41 255 0 256 0 -3 39 c-3 38 -4 39 -63 58 -35 11 -71 30 -86 47 -30 33 -367 874 -510 1274 -13 36 -15 37 -60 37 -26 0 -50 -3 -52 -7z m90 -15 c5 -7 49 -119 97 -248 48 -129 160 -416 248 -637 121 -306 166 -407 185 -423 14 -11 50 -27 79 -37 50 -15 54 -19 54 -47 l0 -31 -237 2 -238 2 -3 29 c-3 27 0 29 60 47 70 21 98 39 98 66 0 31 -271 802 -289 821 -9 10 -293 -783 -293 -817 0 -38 16 -51 87 -70 62 -17 65 -19 65 -49 l0 -31 -342 2 -343 2 0 28 c0 26 5 30 70 50 45 15 79 33 96 51 31 35 133 280 351 846 93 242 171 443 174 448 8 13 70 9 81 -4z"/>
 </g>

</svg>